<mxfile host="app.diagrams.net" agent="Mozilla/5.0 (Windows NT 10.0; Win64; x64) AppleWebKit/537.36 (KHTML, like Gecko) Chrome/130.0.0.0 Safari/537.36" version="24.8.4">
  <diagram name="Сторінка-1" id="wFoE8uNOkXTamwagUvlB">
    <mxGraphModel dx="1384" dy="612" grid="1" gridSize="10" guides="1" tooltips="1" connect="1" arrows="1" fold="1" page="1" pageScale="1" pageWidth="827" pageHeight="1169" math="0" shadow="0">
      <root>
        <mxCell id="0" />
        <mxCell id="1" parent="0" />
        <mxCell id="-MM8gpdoTofMq0w9Z3_p-1" value="Start" style="ellipse;whiteSpace=wrap;html=1;" vertex="1" parent="1">
          <mxGeometry x="140" y="30" width="110" height="40" as="geometry" />
        </mxCell>
        <mxCell id="-MM8gpdoTofMq0w9Z3_p-2" value="End" style="ellipse;whiteSpace=wrap;html=1;" vertex="1" parent="1">
          <mxGeometry x="140" y="480" width="110" height="40" as="geometry" />
        </mxCell>
        <mxCell id="-MM8gpdoTofMq0w9Z3_p-24" value="" style="edgeStyle=orthogonalEdgeStyle;rounded=0;orthogonalLoop=1;jettySize=auto;html=1;" edge="1" parent="1" source="-MM8gpdoTofMq0w9Z3_p-3" target="-MM8gpdoTofMq0w9Z3_p-7">
          <mxGeometry relative="1" as="geometry" />
        </mxCell>
        <mxCell id="-MM8gpdoTofMq0w9Z3_p-3" value="Input l, w, u, d" style="shape=parallelogram;perimeter=parallelogramPerimeter;whiteSpace=wrap;html=1;fixedSize=1;" vertex="1" parent="1">
          <mxGeometry x="85" y="100" width="220" height="40" as="geometry" />
        </mxCell>
        <mxCell id="-MM8gpdoTofMq0w9Z3_p-29" value="" style="edgeStyle=orthogonalEdgeStyle;rounded=0;orthogonalLoop=1;jettySize=auto;html=1;" edge="1" parent="1" source="-MM8gpdoTofMq0w9Z3_p-7" target="-MM8gpdoTofMq0w9Z3_p-25">
          <mxGeometry relative="1" as="geometry" />
        </mxCell>
        <mxCell id="-MM8gpdoTofMq0w9Z3_p-7" value="function canPenguinDrinkCoctail" style="shape=process;whiteSpace=wrap;html=1;backgroundOutline=1;" vertex="1" parent="1">
          <mxGeometry x="106.25" y="180" width="177.5" height="60" as="geometry" />
        </mxCell>
        <mxCell id="-MM8gpdoTofMq0w9Z3_p-8" value="" style="endArrow=classic;html=1;rounded=0;exitX=0.5;exitY=1;exitDx=0;exitDy=0;entryX=0.5;entryY=0;entryDx=0;entryDy=0;" edge="1" parent="1" source="-MM8gpdoTofMq0w9Z3_p-1" target="-MM8gpdoTofMq0w9Z3_p-3">
          <mxGeometry width="50" height="50" relative="1" as="geometry">
            <mxPoint x="300" y="150" as="sourcePoint" />
            <mxPoint x="350" y="100" as="targetPoint" />
          </mxGeometry>
        </mxCell>
        <mxCell id="-MM8gpdoTofMq0w9Z3_p-12" value="canPenguinDrinkCoctail" style="ellipse;whiteSpace=wrap;html=1;" vertex="1" parent="1">
          <mxGeometry x="362.5" y="50" width="140" height="60" as="geometry" />
        </mxCell>
        <mxCell id="-MM8gpdoTofMq0w9Z3_p-35" value="" style="edgeStyle=orthogonalEdgeStyle;rounded=0;orthogonalLoop=1;jettySize=auto;html=1;" edge="1" parent="1" source="-MM8gpdoTofMq0w9Z3_p-13" target="-MM8gpdoTofMq0w9Z3_p-34">
          <mxGeometry relative="1" as="geometry" />
        </mxCell>
        <mxCell id="-MM8gpdoTofMq0w9Z3_p-13" value="initialize as bool" style="rounded=1;whiteSpace=wrap;html=1;" vertex="1" parent="1">
          <mxGeometry x="357.5" y="150" width="150" height="30" as="geometry" />
        </mxCell>
        <mxCell id="-MM8gpdoTofMq0w9Z3_p-17" value="return (w &amp;gt;= 1) &amp;amp;&amp;amp; (maxHeight &amp;gt;=1)" style="ellipse;whiteSpace=wrap;html=1;" vertex="1" parent="1">
          <mxGeometry x="362.5" y="280" width="140" height="60" as="geometry" />
        </mxCell>
        <mxCell id="-MM8gpdoTofMq0w9Z3_p-18" value="" style="endArrow=classic;html=1;rounded=0;exitX=0.5;exitY=1;exitDx=0;exitDy=0;" edge="1" parent="1" source="-MM8gpdoTofMq0w9Z3_p-12">
          <mxGeometry width="50" height="50" relative="1" as="geometry">
            <mxPoint x="382.5" y="370" as="sourcePoint" />
            <mxPoint x="432.5" y="140" as="targetPoint" />
          </mxGeometry>
        </mxCell>
        <mxCell id="-MM8gpdoTofMq0w9Z3_p-25" value="canPenguinDrinkCoctail == true" style="rhombus;whiteSpace=wrap;html=1;" vertex="1" parent="1">
          <mxGeometry x="87.5" y="280" width="215" height="80" as="geometry" />
        </mxCell>
        <mxCell id="-MM8gpdoTofMq0w9Z3_p-26" value="Output : &quot;Three times Sex on the beach, please !&quot;" style="rounded=0;whiteSpace=wrap;html=1;" vertex="1" parent="1">
          <mxGeometry x="20" y="380" width="150" height="50" as="geometry" />
        </mxCell>
        <mxCell id="-MM8gpdoTofMq0w9Z3_p-27" value="Output : &quot;Forgetnabout the coctails, man! &quot;" style="rounded=0;whiteSpace=wrap;html=1;" vertex="1" parent="1">
          <mxGeometry x="220" y="380" width="150" height="50" as="geometry" />
        </mxCell>
        <mxCell id="-MM8gpdoTofMq0w9Z3_p-30" value="" style="endArrow=classic;html=1;rounded=0;exitX=0;exitY=0.5;exitDx=0;exitDy=0;entryX=0.449;entryY=0.067;entryDx=0;entryDy=0;entryPerimeter=0;" edge="1" parent="1" source="-MM8gpdoTofMq0w9Z3_p-25" target="-MM8gpdoTofMq0w9Z3_p-26">
          <mxGeometry width="50" height="50" relative="1" as="geometry">
            <mxPoint x="390" y="360" as="sourcePoint" />
            <mxPoint x="440" y="310" as="targetPoint" />
          </mxGeometry>
        </mxCell>
        <mxCell id="-MM8gpdoTofMq0w9Z3_p-31" value="" style="endArrow=classic;html=1;rounded=0;exitX=1;exitY=0.5;exitDx=0;exitDy=0;entryX=0.56;entryY=-0.027;entryDx=0;entryDy=0;entryPerimeter=0;" edge="1" parent="1" source="-MM8gpdoTofMq0w9Z3_p-25" target="-MM8gpdoTofMq0w9Z3_p-27">
          <mxGeometry width="50" height="50" relative="1" as="geometry">
            <mxPoint x="98" y="330" as="sourcePoint" />
            <mxPoint x="97" y="393" as="targetPoint" />
            <Array as="points" />
          </mxGeometry>
        </mxCell>
        <mxCell id="-MM8gpdoTofMq0w9Z3_p-32" value="" style="endArrow=classic;html=1;rounded=0;exitX=0.5;exitY=1;exitDx=0;exitDy=0;entryX=0.5;entryY=0;entryDx=0;entryDy=0;" edge="1" parent="1" source="-MM8gpdoTofMq0w9Z3_p-26" target="-MM8gpdoTofMq0w9Z3_p-2">
          <mxGeometry width="50" height="50" relative="1" as="geometry">
            <mxPoint x="390" y="460" as="sourcePoint" />
            <mxPoint x="440" y="410" as="targetPoint" />
            <Array as="points">
              <mxPoint x="95" y="460" />
              <mxPoint x="195" y="460" />
            </Array>
          </mxGeometry>
        </mxCell>
        <mxCell id="-MM8gpdoTofMq0w9Z3_p-33" value="" style="endArrow=none;html=1;rounded=0;exitX=0.5;exitY=1;exitDx=0;exitDy=0;" edge="1" parent="1" source="-MM8gpdoTofMq0w9Z3_p-27">
          <mxGeometry width="50" height="50" relative="1" as="geometry">
            <mxPoint x="390" y="460" as="sourcePoint" />
            <mxPoint x="190" y="460" as="targetPoint" />
            <Array as="points">
              <mxPoint x="295" y="460" />
            </Array>
          </mxGeometry>
        </mxCell>
        <mxCell id="-MM8gpdoTofMq0w9Z3_p-36" value="" style="edgeStyle=orthogonalEdgeStyle;rounded=0;orthogonalLoop=1;jettySize=auto;html=1;" edge="1" parent="1" source="-MM8gpdoTofMq0w9Z3_p-34" target="-MM8gpdoTofMq0w9Z3_p-17">
          <mxGeometry relative="1" as="geometry" />
        </mxCell>
        <mxCell id="-MM8gpdoTofMq0w9Z3_p-34" value="maxHeight = u + v" style="rounded=0;whiteSpace=wrap;html=1;" vertex="1" parent="1">
          <mxGeometry x="350" y="210" width="165" height="40" as="geometry" />
        </mxCell>
      </root>
    </mxGraphModel>
  </diagram>
</mxfile>
